<svg height="20" viewBox="0 0 1024 1024" width="20" xmlns="http://www.w3.org/2000/svg">
    <path d="M512 920c-112.2 0-218.2-32.8-309.6-94.7-89.5-60.5-159.4-147.3-203.4-249 44.2-103.2 115.2-191 205.2-251.8 91.8-63.4 198.8-98.5 308.3-98.5 111.2 0 219.2 36.1 311 103.1 91.6 66.8 160.4 157.2 202.8 258.5-42.8 102.1-111.2 191.4-202.6 256.4-91.8 64.6-199.8 96-311.7 96zm0-108c71.4 0 139.4-22.3 196.3-63.7 57.3-41.7 96-100.7 110.5-169-14.4-68.3-53.1-127.3-110.3-168.9-56.9-41.4-125-64.3-196.5-64.3-71.5 0-139.4 22.9-196.3 64.4-57.3 41.6-96 100.7-110.5 169.2 14.4 68.2 53.1 127.3 110.3 168.7 56.9 41.5 124.9 63.7 196.2 63.7zm0-86.6c-51.3 0-97.4-17.9-132.4-50.1-34.4-31.7-53.6-76.6-53.6-124.2s19.2-92.5 53.6-124.2c35-32.2 81.1-50.1 132.4-50.1s97.4 17.9 132.4 50.1c34.4 31.7 53.6 76.6 53.6 124.2s-19.2 92.5-53.6 124.2c-35 32.2-81.1 50.1-132.4 50.1z" fill="#fff"/>
</svg>
